<svg width="32" height="32" viewBox="0 0 32 32" fill="none" xmlns="http://www.w3.org/2000/svg">
<path d="M17.6039 10.8906L21.5566 14.4302L23.0002 12.8527C24.6126 13.2447 26.398 12.8311 27.6788 11.5642C28.5896 10.6634 29.5612 8.98802 30.0966 7.39541C30.8193 5.24519 30.6884 3.60133 29.7179 2.64156C28.7476 1.68167 27.0855 1.55211 24.9115 2.26698C23.3012 2.79647 21.6074 3.75747 20.6966 4.65833C19.4414 5.89972 18.9885 7.65626 19.3941 9.28695L17.6039 10.8906Z" fill="white"/>
<path d="M10.5164 17.2168L1.26622 25.5025C0.494835 26.1778 0.0341148 27.1488 0.00186686 28.1674C-0.0642539 30.2586 1.63445 31.9985 3.7575 31.9985C4.80068 31.9985 5.84043 31.5588 6.56763 30.7464L14.7332 21.8233L10.5164 17.2168Z" fill="white"/>
<path d="M31.9985 27.817C31.9662 26.7984 31.5055 25.8275 30.7342 25.1521C29.7913 24.3078 13.3189 9.55656 12.8779 9.16164C13.3128 7.60401 12.9138 5.86435 11.6784 4.64243C11.2595 4.2281 7.69643 0.703957 7.25927 0.271575C6.89316 -0.090525 6.29964 -0.090525 5.93354 0.271575C5.56744 0.633613 5.56744 1.22071 5.93354 1.58281L8.45244 4.07424L6.94991 5.56035L4.43094 3.06886C4.06491 2.7067 3.47138 2.70682 3.10522 3.06886C2.73911 3.4309 2.73911 4.018 3.10522 4.3801L5.62412 6.87147L4.12159 8.35757L1.60269 5.8662C1.23665 5.50416 0.643059 5.50416 0.276957 5.8662C-0.0891451 6.22824 -0.0891451 6.81534 0.276957 7.17744C4.39338 11.2489 0.45782 7.35627 4.69605 11.5483C5.90041 12.7395 7.64274 13.1779 9.2652 12.7347C35.5276 41.4238 16.0129 20.1058 25.4324 30.3957C26.1153 31.1587 27.097 31.6144 28.1269 31.6463C30.2896 31.7138 32.0661 29.9567 31.9985 27.817Z" fill="white"/>
</svg>
